<svg width="24" height="24" viewBox="0 0 24 24" fill="none" xmlns="http://www.w3.org/2000/svg">
<path d="M13.4877 6.2399C14.4254 6.42285 15.2871 6.88143 15.9626 7.55696C16.6382 8.23249 17.0968 9.09423 17.2797 10.0319M13.4877 2.3999C15.4358 2.61632 17.2525 3.48871 18.6393 4.87383C20.0262 6.25895 20.9009 8.07447 21.1197 10.0223M9.81757 13.7885C8.66409 12.6349 7.75325 11.3306 7.0851 9.93897C7.02763 9.81926 6.9989 9.75945 6.97682 9.68371C6.89836 9.41457 6.95472 9.08408 7.11793 8.85615C7.16385 8.79201 7.21873 8.73714 7.32846 8.6274C7.66408 8.29178 7.8319 8.12397 7.94161 7.95522C8.35537 7.31885 8.35537 6.49845 7.94161 5.86208C7.8319 5.69333 7.66408 5.52552 7.32846 5.18989L7.14139 5.00282C6.63121 4.49264 6.37611 4.23754 6.10214 4.09898C5.55728 3.82339 4.91383 3.82339 4.36898 4.09898C4.09501 4.23754 3.83991 4.49264 3.32973 5.00282L3.1784 5.15415C2.66996 5.66259 2.41574 5.9168 2.22158 6.26244C2.00614 6.64596 1.85123 7.24163 1.85255 7.68153C1.85372 8.07796 1.93062 8.3489 2.08443 8.89076C2.91096 11.8028 4.47045 14.5507 6.76291 16.8431C9.05537 19.1356 11.8032 20.6951 14.7153 21.5217C15.2571 21.6755 15.5281 21.7523 15.9245 21.7535C16.3644 21.7548 16.9601 21.5999 17.3436 21.3845C17.6893 21.1903 17.9435 20.9361 18.4519 20.4276L18.6032 20.2763C19.1134 19.7661 19.3685 19.511 19.507 19.2371C19.7827 18.6923 19.7827 18.0488 19.507 17.5039C19.3685 17.23 19.1134 16.9748 18.6032 16.4647L18.4162 16.2776C18.0806 15.942 17.9128 15.7741 17.744 15.6644C17.1076 15.2507 16.2872 15.2507 15.6508 15.6644C15.4821 15.7741 15.3142 15.942 14.9786 16.2776C14.8689 16.3873 14.8141 16.4422 14.7499 16.4881C14.522 16.6514 14.1915 16.7077 13.9223 16.6292C13.8466 16.6071 13.7868 16.5784 13.6671 16.5209C12.2755 15.8528 10.9711 14.9419 9.81757 13.7885Z" stroke="#343434" stroke-width="1.72167" stroke-linecap="round" stroke-linejoin="round"/>
</svg>
